<?xml version="1.0" encoding="utf-8"?>
<!-- Generator: Adobe Illustrator 19.1.0, SVG Export Plug-In . SVG Version: 6.00 Build 0)  -->
<svg version="1.1" id="Capa_1" xmlns="http://www.w3.org/2000/svg" xmlns:xlink="http://www.w3.org/1999/xlink" x="0px" y="0px"
	 viewBox="249 -248.5 513.5 513.5" style="enable-background:new 249 -248.5 513.5 513.5;" xml:space="preserve">
<style type="text/css">
	.st0{fill:#BBBBBF;}
</style>
<g>
	<g>
		<path class="st0" d="M505.8-248.5C363.9-248.5,249-133.7,249,8.2S363.9,265,505.8,265S762.5,150.1,762.5,8.2
			S646.7-248.5,505.8-248.5z M505.8,240.9c-128.4,0-232.6-104.3-232.6-232.6s104.3-232.6,232.6-232.6S738.4-120.1,738.4,8.2
			S634.1,240.9,505.8,240.9z"/>
		<path class="st0" d="M595.5-65.1C556-24.6,516.4,16,476.8,56.5C456.5,35.3,436.3,14,416-7.2c-10.6-11.6-28,5.8-17.4,17.4
			c23.2,24.1,46.3,48.3,69.5,72.4c4.8,4.8,12.5,4.8,17.4,0C528,39.1,570.4-4.3,612.9-47.8C623.5-59.3,606.2-76.7,595.5-65.1z"/>
	</g>
</g>
</svg>
