<?xml version="1.0" encoding="utf-8"?>
<!-- Generator: Adobe Illustrator 19.1.0, SVG Export Plug-In . SVG Version: 6.00 Build 0)  -->
<svg version="1.1" id="Capa_1" xmlns="http://www.w3.org/2000/svg" xmlns:xlink="http://www.w3.org/1999/xlink" x="0px" y="0px"
	 viewBox="0 2.8 13.2 13.2" style="enable-background:new 0 2.8 13.2 13.2;" xml:space="preserve">
<style type="text/css">
	.st0{fill:#DADAE0;}
</style>
<g>
	<g>
		<path class="st0" d="M7.9,6c0-0.1-0.1-0.2-0.2-0.2c0,0-0.1,0-0.1,0.1C7,6.5,7.2,9.1,7.4,10.2c0,0.1,0.1,0.3,0.1,0.3
			C7.9,8.8,8.1,6.8,7.9,6z"/>
		<path class="st0" d="M6.6,10.3C6.3,10,6,10,5.8,10c-0.6,0-1.4,0.9-0.9,2.2c0.2,0.6,0.8,0.5,1,0.5c0.5,0,0.8-0.3,1.1-1
			c-0.1-0.1-0.1-0.3-0.1-0.4C6.8,11,6.7,10.6,6.6,10.3z"/>
		<path class="st0" d="M12.3,2.8H0.8C0.4,2.8,0,3.2,0,3.7v11.5C0,15.6,0.4,16,0.8,16h11.5c0.5,0,0.8-0.4,0.8-0.8V3.7
			C13.2,3.2,12.8,2.8,12.3,2.8z M8.7,13.2c-0.5,0-0.9-0.3-1.2-0.6c-0.4,0.6-0.9,1-1.5,1c-0.9,0-1.6-0.8-1.8-1.4
			c-0.5-1.5,0.3-3.1,1.4-3.1c0.3,0,0.6,0,0.8,0.2C6.2,8,6.3,6.5,6.7,5.6c0.2-0.3,0.4-0.7,0.9-0.7c0.6,0,1,0.7,1.1,1.1
			c0.4,1.2,0.1,4-0.7,5.9c0.2,0.5,0.5,0.5,0.6,0.5C9.2,12.1,9.5,13.2,8.7,13.2z"/>
	</g>
</g>
</svg>
