<?xml version="1.0" encoding="utf-8"?>
<!-- Generator: Adobe Illustrator 19.1.0, SVG Export Plug-In . SVG Version: 6.00 Build 0)  -->
<svg version="1.1" id="Capa_1" xmlns="http://www.w3.org/2000/svg" xmlns:xlink="http://www.w3.org/1999/xlink" x="0px" y="0px"
	 viewBox="247 -247 510 510" style="enable-background:new 247 -247 510 510;" xml:space="preserve">
<style type="text/css">
	.st0{fill:#DADAE0;}
</style>
<g>
	<g id="post-twitter">
		<path class="st0" d="M706-247H298c-28,0-51,22.9-51,51v408c0,28,23,51,51,51h408c28,0,51-23,51-51v-408C757-224.1,734-247,706-247
			z M647.3-60.9c-2.5,117.3-76.5,198.9-188.7,204c-45.9,2.6-79.1-12.8-109.7-30.6c33.1,5.1,76.5-7.6,99.5-28
			C415.3,82,394.9,64.1,384.7,36c10.2,2.5,20.4,0,28,0c-30.6-10.2-51-28.1-53.5-68.9c7.6,5.1,17.8,7.6,28,7.6
			c-23-12.8-38.3-61.2-20.4-91.8c33.1,35.7,73.9,66.3,140.3,71.4c-17.9-71.4,79.1-109.6,117.3-61.2c17.8-2.6,30.6-10.2,43.3-15.3
			c-5.1,17.9-15.3,28.1-28,38.3c12.8-2.6,25.5-5.1,35.7-10.2C672.8-81.3,660.1-71.1,647.3-60.9z"/>
	</g>
</g>
</svg>
