<?xml version="1.0" encoding="utf-8"?>
<!-- Generator: Adobe Illustrator 19.1.0, SVG Export Plug-In . SVG Version: 6.00 Build 0)  -->
<svg version="1.1" id="Capa_1" xmlns="http://www.w3.org/2000/svg" xmlns:xlink="http://www.w3.org/1999/xlink" x="0px" y="0px"
	 viewBox="39 -39 94 94" style="enable-background:new 39 -39 94 94;" xml:space="preserve">
<style type="text/css">
	.st0{fill:#DADAE0;}
</style>
<g>
	<path class="st0" d="M128-39H44c-2.8,0-5,2.2-5,5v84c0,2.8,2.2,5,5,5h84c2.8,0,5-2.2,5-5v-84C133-36.8,130.8-39,128-39z
		 M105.9-17.6l-7.2,0c-5.7,0-6.8,2.7-6.8,6.6v8.7h13.5l0,13.6H91.9v35H77.9v-35H66.1V-2.3h11.8v-10.1c0-11.7,7.1-18,17.5-18l10.5,0
		V-17.6z"/>
</g>
</svg>
