<?xml version="1.0" encoding="utf-8"?>
<!-- Generator: Adobe Illustrator 19.2.1, SVG Export Plug-In . SVG Version: 6.00 Build 0)  -->
<svg version="1.1" id="Calque_1" xmlns="http://www.w3.org/2000/svg" xmlns:xlink="http://www.w3.org/1999/xlink" x="0px" y="0px"
	 viewBox="0 0 250 50.6" style="enable-background:new 0 0 250 50.6;" xml:space="preserve">
<g>
	<path d="M2.2,36l2.4-0.7c0.1,0.8,0.3,1.6,0.5,2.3s0.6,1.4,1,2s1,1.1,1.6,1.5s1.4,0.5,2.3,0.5c1.4,0,2.4-0.4,3.2-1.1
		s1.1-1.8,1.1-3.2c0-1.2-0.3-2.3-1-3.4s-1.7-2.3-3-3.7l-4.7-5c-1-1.1-1.8-2.1-2.4-3.1s-0.8-1.9-0.8-3c0-2,0.7-3.6,2-4.7s3-1.8,5-1.8
		c2,0,3.6,0.6,4.8,1.7s2,2.7,2.4,4.9l0.1,0.3l-2.3,0.7l0-0.2c-0.2-1.5-0.8-2.7-1.6-3.7s-2-1.4-3.3-1.4c-1.3,0-2.4,0.3-3.2,1
		s-1.2,1.7-1.2,3c0,0.8,0.2,1.6,0.6,2.4s1,1.6,1.8,2.5l4.4,4.8c0.1,0.1,0.4,0.4,0.9,1s0.8,0.8,0.9,1s0.4,0.5,0.8,0.9
		s0.7,0.8,0.8,1.1s0.4,0.6,0.6,1s0.5,0.8,0.6,1.2s0.2,0.7,0.3,1.1s0.1,0.9,0.1,1.3c0,2.2-0.7,3.8-2,5s-3,1.8-5.2,1.8
		c-1.1,0-2.1-0.2-2.9-0.6s-1.6-1-2.2-1.7S3.4,39.9,3,39S2.4,37.1,2.2,36z"/>
	<path d="M27.3,43.3V13H30v30.3H27.3z"/>
	<path d="M42.3,43.3V13h8.1c1,0,1.9,0.1,2.7,0.4s1.4,0.7,1.9,1.1s0.9,1,1.2,1.7s0.5,1.4,0.6,2.1s0.2,1.5,0.2,2.4
		c0,3.9-1.4,6.3-4.2,7.3l4.7,15.1h-2.8l-4.4-14.8H45v14.8H42.3z M45,26.4h5.4c0.8,0,1.4-0.2,1.9-0.5s0.9-0.7,1.2-1.3
		s0.4-1.1,0.6-1.8s0.2-1.3,0.2-2.1c0-0.6,0-1.2-0.1-1.7s-0.2-1-0.4-1.5s-0.4-0.9-0.7-1.2s-0.7-0.6-1.1-0.8s-1-0.3-1.6-0.3H45V26.4z"
		/>
	<path d="M68.2,43.3V13h2.7v30.3H68.2z"/>
	<path d="M82.6,34.5V21.8c0-1.1,0.1-2.1,0.2-2.9s0.4-1.7,0.7-2.5s0.8-1.5,1.4-2s1.3-1,2.2-1.3s1.9-0.5,3-0.5c4.7,0,7.1,3.1,7.1,9.2
		v1.2h-2.5v-1.8c0-1-0.1-1.8-0.2-2.6s-0.4-1.4-0.7-2s-0.8-1.1-1.4-1.4s-1.3-0.5-2.2-0.5c-0.8,0-1.4,0.1-2,0.3s-1,0.5-1.4,0.9
		s-0.6,0.8-0.9,1.4s-0.4,1.2-0.4,1.8s-0.1,1.3-0.1,2.1v13.9c0,1,0.1,1.9,0.2,2.6s0.4,1.4,0.7,2s0.8,1.1,1.5,1.4s1.5,0.5,2.4,0.5
		c0.9,0,1.6-0.2,2.2-0.5s1.1-0.8,1.4-1.4s0.6-1.3,0.7-2s0.2-1.6,0.2-2.6V33h2.5v1.5c0,1.1-0.1,2-0.2,2.9s-0.4,1.7-0.7,2.5
		s-0.8,1.5-1.3,2s-1.2,1-2,1.3s-1.8,0.5-2.9,0.5c-1.2,0-2.2-0.2-3.1-0.5s-1.6-0.8-2.2-1.3s-1-1.2-1.4-2s-0.6-1.6-0.7-2.5
		S82.6,35.6,82.6,34.5z"/>
	<path d="M108.4,43.3V13h2.7v13.7h9.3V13h2.7v30.3h-2.7V28.6h-9.3v14.7H108.4z"/>
	<path d="M136.3,43.3h-2.7l6-30.3h3.5l6,30.3h-2.7l-1.5-7.9h-7L136.3,43.3z M138.2,33.6h6.3l-3.2-17.8L138.2,33.6z"/>
	<path d="M159.6,43.3V13h2.1l9.6,24V13h2.3v30.3h-2l-9.6-23.4v23.4H159.6z"/>
	<path d="M188.4,43.3V15.2h-5.9V13H197v2.1h-5.9v28.1H188.4z"/>
	<path d="M206.1,43.3V13h2.7v13.7h9.3V13h2.7v30.3h-2.7V28.6h-9.3v14.7H206.1z"/>
	<path d="M232.5,34.5V21.8c0-1.1,0.1-2,0.2-2.9s0.4-1.7,0.8-2.5s0.8-1.5,1.4-2s1.3-1,2.2-1.3s1.9-0.5,3.1-0.5s2.2,0.2,3.1,0.5
		s1.6,0.7,2.2,1.3s1,1.2,1.4,2s0.6,1.6,0.8,2.5s0.2,1.9,0.2,2.9v12.7c0,6.2-2.6,9.2-7.7,9.2S232.5,40.7,232.5,34.5z M245.2,35.1
		V21.3c0-4.3-1.7-6.5-5-6.5s-5,2.2-5,6.5v13.9c0,4.3,1.7,6.5,5,6.5S245.2,39.5,245.2,35.1z"/>
</g>
</svg>
