<?xml version="1.0" encoding="utf-8"?>
<!-- Generator: Adobe Illustrator 19.2.1, SVG Export Plug-In . SVG Version: 6.00 Build 0)  -->
<svg version="1.1" id="Calque_1" xmlns="http://www.w3.org/2000/svg" xmlns:xlink="http://www.w3.org/1999/xlink" x="0px" y="0px"
	 viewBox="0 0 269.4 50.6" style="enable-background:new 0 0 269.4 50.6;" xml:space="preserve">
<g>
	<path d="M10.5,43.6c-2.8,0-5-0.8-6.5-2.5s-2.3-3.9-2.5-6.8L6,33.2c0.2,4.5,1.7,6.8,4.5,6.8c2.3,0,3.4-1.1,3.4-3.4
		c0-0.7-0.1-1.3-0.3-1.9s-0.5-1.1-0.8-1.6s-0.7-0.9-1-1.1s-0.7-0.6-1.2-1.1l-5.6-4.5c-1-0.8-1.9-1.8-2.5-3.1s-0.9-2.7-0.9-4.3
		c0-2.3,0.7-4.2,2.2-5.5s3.4-2.1,5.7-2.1c2.6,0,4.6,0.6,6.1,1.9s2.4,3,2.8,5.3c0,0.2,0.1,0.6,0.1,1l-4.5,1.1c0-0.2,0-0.5-0.1-0.9
		c-0.2-1.4-0.6-2.6-1.3-3.4s-1.7-1.3-3.1-1.3c-1.1,0-1.9,0.3-2.5,0.9S6,17.5,6,18.6c0,1.8,0.8,3.3,2.3,4.4l5.6,4.5
		c3,2.4,4.5,5.3,4.5,8.7c0,2.3-0.7,4.1-2.1,5.4S12.9,43.6,10.5,43.6z"/>
	<path d="M29.1,43.3V11.8h4.5v31.5H29.1z"/>
	<path d="M45.8,43.3V11.8h5.6c3.4,0,5.9,0.7,7.6,2s2.5,3.5,2.5,6.5c0,1.9-0.3,3.4-1,4.7s-1.6,2.1-2.9,2.6l5.1,15.8h-4.5l-4.5-14.6
		h-3.4v14.6H45.8z M50.3,25.3h1.1c1.9,0,3.3-0.4,4.2-1.2S57,22,57,20.2s-0.5-3.1-1.4-3.9s-2.3-1.2-4.2-1.2h-1.1V25.3z"/>
	<path d="M72.8,43.3V11.8h4.5v31.5H72.8z"/>
	<path d="M97.5,43.6c-1.3,0-2.5-0.2-3.5-0.6s-1.8-0.9-2.5-1.6S90.3,40,89.9,39s-0.7-2-0.9-3.2s-0.2-2.4-0.2-3.8v-9
		c0-1.4,0.1-2.7,0.2-3.8s0.4-2.2,0.9-3.2s0.9-1.8,1.6-2.5S93,12.4,94,12s2.2-0.6,3.5-0.6c1.5,0,2.7,0.2,3.8,0.7s1.9,1.1,2.6,1.9
		s1.1,1.8,1.4,2.9s0.5,2.4,0.6,3.9c0,0.2,0,0.6,0,1h-4.5v-1c0-0.6,0-1.2-0.1-1.6s-0.1-0.9-0.2-1.4s-0.2-0.9-0.4-1.2
		s-0.4-0.6-0.7-0.9s-0.6-0.5-1-0.6s-0.9-0.2-1.5-0.2c-0.7,0-1.4,0.1-1.9,0.4s-0.9,0.5-1.2,0.9s-0.5,0.9-0.7,1.5s-0.3,1.2-0.3,1.8
		s-0.1,1.3-0.1,2.2v11.3c0,0.8,0,1.4,0.1,2s0.2,1.2,0.4,1.8s0.4,1.1,0.7,1.5s0.7,0.7,1.2,1s1.1,0.4,1.7,0.4s1.2-0.1,1.7-0.4
		s0.9-0.6,1.1-1s0.5-0.9,0.7-1.5s0.3-1.2,0.3-1.8s0.1-1.3,0.1-2V32h4.5v1.1c0,1.6-0.1,3.1-0.4,4.3s-0.8,2.3-1.4,3.3
		s-1.5,1.7-2.6,2.2S99,43.6,97.5,43.6z"/>
	<path d="M116.2,43.3V11.8h4.5v13.5h7.9V11.8h4.5v31.5h-4.5V28.7h-7.9v14.6H116.2z"/>
	<path d="M142.9,43.3l6.8-31.5h4.5l6.8,31.5h-4.5l-1.7-7.9h-5.6l-1.7,7.9H142.9z M149.6,32h4.5l-2.3-13.5L149.6,32z"/>
	<path d="M170.7,43.3V11.8h3.4l7.9,19.5V11.8h4.5v31.5h-3.2l-8.1-21v21H170.7z"/>
	<path d="M201.7,43.3V15.8H196v-4h15.8v4h-5.6v27.5H201.7z"/>
	<path d="M221.3,43.3V11.8h4.5v13.5h7.9V11.8h4.5v31.5h-4.5V28.7h-7.9v14.6H221.3z"/>
	<path d="M258.1,43.6c-1.6,0-2.9-0.2-4.1-0.7s-2-1.2-2.7-2.1s-1.2-2-1.5-3.3s-0.5-2.7-0.5-4.4V21.7c0-1.7,0.2-3.1,0.5-4.3
		s0.8-2.3,1.5-3.2s1.6-1.6,2.7-2s2.5-0.7,4.1-0.7c3.1,0,5.3,0.9,6.6,2.6s2,4.3,2,7.6v11.4c0,1.6-0.2,3.1-0.5,4.3s-0.8,2.3-1.5,3.3
		s-1.6,1.6-2.7,2.1S259.7,43.6,258.1,43.6z M254.9,38.5c0.6,0.9,1.7,1.4,3.3,1.4s2.7-0.5,3.3-1.4s0.9-2.3,0.9-4.2V20.6
		c0-1.8-0.3-3.2-0.9-4.1s-1.7-1.4-3.3-1.4s-2.7,0.5-3.3,1.4s-0.9,2.3-0.9,4.1v13.7C254,36.1,254.3,37.5,254.9,38.5z"/>
</g>
</svg>
