<?xml version="1.0" encoding="utf-8"?>
<!-- Generator: Adobe Illustrator 21.1.0, SVG Export Plug-In . SVG Version: 6.00 Build 0)  -->
<svg version="1.1" id="Calque_1" xmlns="http://www.w3.org/2000/svg" xmlns:xlink="http://www.w3.org/1999/xlink" x="0px" y="0px"
	 viewBox="0 0 2155 1326" style="enable-background:new 0 0 2155 1326;" xml:space="preserve">
<style type="text/css">
	.st0{fill:#1D1D1B;}
	.st1{clip-path:url(#SVGID_2_);fill:none;stroke:#1D1D1B;stroke-width:3;}
</style>
<g>
	<path class="st0" d="M1030.2,655.9c-1.2-0.4-2.4-1.2-3.5-2.2c-0.5-0.4-0.7-0.8-0.7-1.4c0-0.4,0.2-0.8,0.5-1.1
		c0.3-0.3,0.7-0.5,1.1-0.5c0.4,0,0.7,0.1,1,0.4c0.9,0.8,1.8,1.4,2.7,1.8c0.9,0.4,2,0.6,3.2,0.6c1.4,0,2.6-0.3,3.5-1
		c1-0.6,1.4-1.4,1.4-2.4c0-1.1-0.5-2-1.4-2.6c-0.9-0.6-2.4-1.1-4.3-1.6c-2.3-0.5-4-1.2-5.2-2.3c-1.2-1.1-1.8-2.5-1.8-4.4
		c0-1.3,0.3-2.4,1-3.4c0.7-1,1.6-1.7,2.8-2.3c1.2-0.5,2.6-0.8,4.1-0.8c1.4,0,2.6,0.2,3.9,0.7c1.2,0.4,2.2,1,2.9,1.7
		c0.5,0.4,0.8,0.9,0.8,1.4c0,0.4-0.1,0.7-0.4,1.1c-0.3,0.3-0.7,0.5-1.1,0.5c-0.3,0-0.6-0.1-0.8-0.3c-0.6-0.6-1.4-1.1-2.4-1.4
		c-1-0.4-2-0.6-2.9-0.6c-1.5,0-2.6,0.3-3.5,0.9c-0.9,0.6-1.3,1.4-1.3,2.4c0,1.1,0.4,1.9,1.3,2.5c0.9,0.6,2.2,1.1,3.9,1.4
		c1.7,0.4,3.1,0.8,4.2,1.3c1.1,0.5,1.9,1.2,2.5,2.1c0.6,0.9,0.9,2.1,0.9,3.5c0,1.3-0.4,2.4-1.1,3.4c-0.7,1-1.7,1.8-2.9,2.3
		c-1.2,0.5-2.6,0.8-4,0.8C1032.9,656.6,1031.5,656.4,1030.2,655.9z"/>
	<path class="st0" d="M1062.6,655.8c-0.3,0.3-0.7,0.5-1.2,0.5c-0.5,0-0.9-0.2-1.2-0.5c-0.3-0.3-0.4-0.7-0.4-1.2v-19.9
		c0-0.4,0.2-0.8,0.5-1.1c0.3-0.3,0.7-0.5,1.2-0.5c0.4,0,0.8,0.2,1.1,0.5c0.3,0.3,0.5,0.7,0.5,1.1v19.9
		C1063.1,655.1,1062.9,655.5,1062.6,655.8z"/>
	<path class="st0" d="M1099.8,654.2c0.1,0.2,0.2,0.5,0.2,0.7c0,0.5-0.1,0.8-0.4,1c-0.3,0.2-0.7,0.3-1.1,0.3c-0.4,0-0.8-0.1-1.1-0.3
		c-0.7-0.4-1.2-1-1.6-1.8c-0.4-0.8-0.6-2.1-0.6-3.7c0-1.1-0.3-1.9-1-2.4c-0.7-0.5-1.5-0.8-2.6-0.8h-6.7v7.4c0,0.5-0.1,0.8-0.4,1.1
		c-0.3,0.3-0.6,0.4-1,0.4c-0.5,0-0.9-0.2-1.3-0.5c-0.4-0.3-0.5-0.7-0.5-1.1v-19.9c0-0.4,0.2-0.8,0.5-1.1c0.3-0.3,0.7-0.5,1.1-0.5
		h9.3c1.2,0,2.3,0.3,3.3,0.9c1,0.6,1.8,1.4,2.4,2.4c0.6,1,0.9,2.2,0.9,3.4c0,1.2-0.3,2.4-1,3.4c-0.7,1.1-1.5,1.9-2.5,2.4
		c0.8,0.4,1.5,1,1.9,1.7c0.5,0.7,0.7,1.6,0.8,2.6c0.1,1.3,0.2,2.1,0.3,2.6c0.1,0.5,0.4,0.8,0.7,1
		C1099.5,653.8,1099.7,654,1099.8,654.2z M1094.1,643.9c0.5-0.4,0.9-0.9,1.2-1.6s0.5-1.4,0.5-2.3c0-1.1-0.3-1.9-1-2.7
		c-0.6-0.7-1.4-1.1-2.4-1.1h-7.4v8.3h7.5C1093,644.5,1093.6,644.3,1094.1,643.9z"/>
	<path class="st0" d="M1120,655.8c-0.3,0.3-0.7,0.5-1.2,0.5c-0.5,0-0.9-0.2-1.2-0.5c-0.3-0.3-0.4-0.7-0.4-1.2v-19.9
		c0-0.4,0.2-0.8,0.5-1.1c0.3-0.3,0.7-0.5,1.2-0.5c0.4,0,0.8,0.2,1.1,0.5c0.3,0.3,0.5,0.7,0.5,1.1v19.9
		C1120.5,655.1,1120.3,655.5,1120,655.8z"/>
</g>
<g>
	<path class="st0" d="M1046.9,694.4c0,0.3-0.1,0.6-0.4,0.9c-0.2,0.3-0.6,0.5-1,0.5c-0.4,0-0.7-0.1-0.9-0.3l-3-2.5
		c-2.1,2.1-4.7,3.1-7.8,3.1c-1.5,0-2.9-0.3-4.1-1c-1.2-0.7-2.2-1.6-2.9-2.7c-0.7-1.1-1.1-2.3-1.1-3.6c0-1.5,0.4-2.9,1.2-4.1
		c0.8-1.2,2-2.1,3.7-2.8c-0.4-0.6-0.8-1.2-1-1.8c-0.2-0.6-0.3-1.2-0.3-1.8c0-1.1,0.3-2.1,0.8-2.9c0.5-0.9,1.3-1.6,2.4-2.1
		c1-0.5,2.2-0.8,3.6-0.8c1.5,0,2.8,0.3,4,0.8c1.2,0.5,1.9,1.2,2.4,2.1c0.2,0.3,0.2,0.6,0.2,1c0,0.4-0.1,0.6-0.4,0.9
		c-0.3,0.2-0.6,0.4-1,0.4c-0.5,0-0.8-0.2-1.1-0.5c-0.5-0.7-1-1.1-1.7-1.5c-0.7-0.3-1.5-0.5-2.5-0.5c-1.1,0-2,0.3-2.6,0.9
		c-0.6,0.6-0.9,1.3-0.9,2.2c0,0.8,0.3,1.6,0.9,2.4c0.6,0.8,1.4,1.8,2.4,2.9l0.6,0.7c1.3,1.4,2.8,2.9,4.7,4.6c0.6-1.1,1-2.3,1.2-3.7
		c0.1-0.6,0.5-1,1.3-1c0.4,0,0.8,0.2,1.1,0.5c0.3,0.4,0.4,0.8,0.3,1.3c-0.3,1.8-0.8,3.4-1.6,4.8c0.9,0.8,1.8,1.6,2.8,2.4
		C1046.7,693.5,1046.9,693.9,1046.9,694.4z M1039.5,691.1c-2.3-2.1-4.3-4-6-5.9c-0.3-0.3-0.7-0.7-1.1-1.3c-1.3,0.4-2.1,0.9-2.7,1.6
		c-0.5,0.7-0.8,1.6-0.8,2.6c0,0.9,0.2,1.6,0.6,2.4c0.4,0.7,1,1.3,1.8,1.8c0.8,0.5,1.9,0.7,3.1,0.7
		C1036.4,693.1,1038.1,692.5,1039.5,691.1z"/>
	<path class="st0" d="M1076.8,675.4c0,0.4-0.1,0.8-0.4,1.1c-0.3,0.4-0.6,0.5-1.1,0.5c-0.3,0-0.6-0.1-0.9-0.2
		c-1.4-0.8-2.8-1.2-4.4-1.2c-1.6,0-3.1,0.4-4.4,1.1c-1.3,0.7-2.2,1.7-2.9,3c-0.7,1.3-1.1,2.8-1.1,4.5c0,1.8,0.4,3.4,1.1,4.7
		c0.7,1.3,1.7,2.3,3,3c1.3,0.7,2.7,1,4.3,1c1.6,0,3.1-0.4,4.4-1.2c0.3-0.1,0.5-0.2,0.9-0.2c0.5,0,0.9,0.2,1.2,0.6
		c0.3,0.3,0.4,0.7,0.4,1.1c0,0.3-0.1,0.5-0.2,0.7c-0.1,0.2-0.3,0.4-0.6,0.5c-0.9,0.5-1.8,0.9-2.9,1.2c-1.1,0.3-2.1,0.4-3.1,0.4
		c-2.1,0-4.1-0.5-5.9-1.4c-1.8-0.9-3.2-2.3-4.3-4.1c-1.1-1.8-1.6-3.9-1.6-6.3c0-2.2,0.5-4.2,1.5-6c1-1.8,2.4-3.2,4.2-4.2
		c1.8-1,3.8-1.5,6-1.5c2.1,0,4.1,0.5,6,1.6C1076.5,674.4,1076.8,674.8,1076.8,675.4z"/>
	<path class="st0" d="M1105.7,690.3c-1,1.8-2.3,3.2-4,4.3c-1.7,1-3.6,1.6-5.7,1.6c-2.1,0-4-0.5-5.7-1.6c-1.7-1-3-2.5-4-4.3
		c-1-1.8-1.4-3.8-1.4-6c0-2.2,0.5-4.2,1.4-6c1-1.8,2.3-3.2,4-4.3c1.7-1,3.6-1.6,5.7-1.6c2.1,0,4,0.5,5.7,1.6c1.7,1,3,2.5,4,4.3
		c1,1.8,1.4,3.8,1.4,6C1107.1,686.5,1106.6,688.5,1105.7,690.3z M1102.7,679.8c-0.7-1.3-1.6-2.4-2.7-3.1c-1.2-0.8-2.5-1.1-4-1.1
		c-1.5,0-2.8,0.4-4,1.1c-1.2,0.7-2.1,1.8-2.7,3.1c-0.7,1.3-1,2.8-1,4.5c0,1.6,0.3,3.1,1,4.5c0.7,1.3,1.6,2.4,2.7,3.1
		c1.2,0.8,2.5,1.1,4,1.1c1.5,0,2.8-0.4,4-1.1c1.2-0.8,2.1-1.8,2.7-3.1c0.7-1.3,1-2.8,1-4.5C1103.7,682.6,1103.4,681.1,1102.7,679.8z
		"/>
	<path class="st0" d="M1116.4,695.3c-0.3-0.3-0.4-0.7-0.4-1.3v-0.6c0-0.5,0.1-0.9,0.4-1.2c0.3-0.3,0.7-0.4,1.2-0.4h0.3
		c0.5,0,1,0.1,1.2,0.4c0.3,0.3,0.4,0.7,0.4,1.2v0.6c0,1.1-0.5,1.7-1.6,1.7h-0.3C1117.1,695.7,1116.7,695.6,1116.4,695.3z"/>
</g>
<g>
	<defs>
		<rect id="SVGID_1_" x="984.1" y="571.2" width="186.9" height="183.5"/>
	</defs>
	<clipPath id="SVGID_2_">
		<use xlink:href="#SVGID_1_"  style="overflow:visible;"/>
	</clipPath>
	<line class="st1" x1="1016.8" y1="572.2" x2="1138.2" y2="572.2"/>
	<line class="st1" x1="1016.8" y1="753.8" x2="1138.2" y2="753.8"/>
	<line class="st1" x1="985.1" y1="723.7" x2="985.1" y2="602.3"/>
	<line class="st1" x1="1169.9" y1="723.7" x2="1169.9" y2="602.3"/>
</g>
</svg>
